<svg xmlns="http://www.w3.org/2000/svg" xmlns:xlink="http://www.w3.org/1999/xlink" id="liturgia" width="81.751" height="60" viewBox="0 0 81.751 60"><defs><clipPath id="clip-path"><rect id="Rect&#xE1;ngulo_1388" data-name="Rect&#xE1;ngulo 1388" width="81.751" height="60" fill="#0a2846"></rect></clipPath></defs><g id="Grupo_1798" data-name="Grupo 1798" clip-path="url(#clip-path)"><path id="Trazado_2487" data-name="Trazado 2487" d="M81.751,20.73c-1.31,1.631-3.2,2.22-5.1,2.689-3.49.863-6.192-.46-8.268-3.253-.476-.64-.882-1.33-1.369-2.072a11.549,11.549,0,0,0-5.432,7.476,11.366,11.366,0,0,0,.747,7.465,3.772,3.772,0,0,1,.187.446,1.305,1.305,0,0,1-.639,1.727,1.283,1.283,0,0,1-1.775-.694c-.511-1.212-.92-2.468-1.388-3.747-.166.259-.368.539-.533.84q-4.4,8.015-8.779,16.037a27.1,27.1,0,0,1-6.279,8.041C37.613,60.305,31.393,61,24.742,58.8,18.475,56.727,13.289,52.912,8.6,48.386A29.966,29.966,0,0,1,.2,33.72C.171,33.6.144,33.469.11,33.345a1.418,1.418,0,0,1,.505-1.8c.692-.422,1.256-.118,1.846.322a32.651,32.651,0,0,0,3.577,2.473,33.324,33.324,0,0,0,4.739,2.071A27.513,27.513,0,0,1,7.2,28.86c-1.675-6.172-.525-11.946,2.505-17.439.561-1.017,1.62-1.018,2.366-.06.867,1.113,1.711,2.244,2.668,3.5.193-.692.328-1.2.478-1.713A14.133,14.133,0,0,1,20.471,5.8c.935-.71,1.607-.453,2.338.7,3.168,5.017,6.281,10.073,9.569,15.011,1.585,2.38,3.513,4.532,5.406,6.941.885-.768,1.679-1.362,2.36-2.064a15.108,15.108,0,0,1,8.886-4.724A14.469,14.469,0,0,1,58.7,23.6c.138.081.28.156.5.28l1.268-2.864c-.617-.29-1.23-.555-1.823-.861-3.767-1.948-5.277-5.121-4.357-9.248a23.363,23.363,0,0,1,.9-2.854A1.346,1.346,0,0,1,56.96,7.13a12.475,12.475,0,0,1,5.26,2.559,6.812,6.812,0,0,1,2.506,5.147c.014.447,0,.894,0,1.483l2.87-1.557c-.531-.878-1.092-1.7-1.542-2.572-1.877-3.651-1.37-6.916,1.6-9.761A32.7,32.7,0,0,1,70.891,0h.388a7.793,7.793,0,0,1,1.308,1.1c2.381,3.1,3.77,6.393,1.541,10.428.887-.427,1.562-.774,2.254-1.08A1.314,1.314,0,1,1,77.54,12.8c-.491.266-.988.52-1.586.833a8.986,8.986,0,0,1,4.11,3.493c.622.967,1.129,2.009,1.687,3.017ZM11.074,14.582a19.864,19.864,0,0,0-2.018,8.292,19.333,19.333,0,0,0,5.969,14.133c.52.528.877,1.066.552,1.8a1.375,1.375,0,0,1-1.638.732,31.459,31.459,0,0,1-4.734-.882c-1.839-.6-3.575-1.514-5.5-2.354.554,1.169,1,2.308,1.6,3.35,4.7,8.066,11.68,13.434,20.319,16.632a15.137,15.137,0,0,0,14.6-1.673A23.308,23.308,0,0,0,47.1,46.347c3.539-6.442,7.119-12.861,10.681-19.291.118-.214.22-.436.337-.67-.188-.135-.313-.233-.446-.32A12.254,12.254,0,0,0,42.057,28.2c-4.34,4.545-9.658,5.07-15.009,1.779A52.017,52.017,0,0,1,15.592,19.916c-1.519-1.708-2.958-3.487-4.518-5.334m9.951-5.8a10.689,10.689,0,0,0-3.69,8.756,1.4,1.4,0,0,0,.437.813c2.381,2.319,4.707,4.7,7.2,6.9a17.519,17.519,0,0,0,6.435,3.855,4.95,4.95,0,0,0,3.556,0c-5.407-6.214-9.691-13.192-13.938-20.321M57.345,10.1a5.644,5.644,0,0,0,4.139,8.3,5.631,5.631,0,0,0-4.139-8.3m12.071,2.437c3.755-2.64,4.306-6.5,1.357-9.269-3.633,2.43-4.152,5.848-1.357,9.269m.179,4.538c1.851,3.7,4.765,5.27,8.97,2.723-1.913-3.968-5.237-5-8.97-2.723" transform="translate(0)" fill="#0a2846"></path><path id="Trazado_2488" data-name="Trazado 2488" d="M255.192,142.163a1.2,1.2,0,1,1-2.4.049,1.137,1.137,0,0,1,1.124-1.21,1.177,1.177,0,0,1,1.271,1.161" transform="translate(-203.669 -113.595)" fill="#0a2846"></path></g></svg>