<svg xmlns="http://www.w3.org/2000/svg" xmlns:xlink="http://www.w3.org/1999/xlink" width="188.919" height="40" viewBox="0 0 188.919 40"><defs><clipPath id="clip-path"><rect id="Rect&#xE1;ngulo_3" data-name="Rect&#xE1;ngulo 3" width="188.919" height="40" fill="none"></rect></clipPath></defs><g id="Grupo_30" data-name="Grupo 30" transform="translate(0 0)"><g id="Grupo_1" data-name="Grupo 1" transform="translate(0 0)" clip-path="url(#clip-path)"><path id="Trazado_1" data-name="Trazado 1" d="M15.646,3.3a4.448,4.448,0,0,0,1.236,3.133.1.1,0,0,0,.168-.1C16.03,2.667,17.242.94,18.659.017A.1.1,0,0,1,18.8.156c-1.285,2.31,2.188,2.511,2.394,5.422a5.693,5.693,0,0,1-3.526,5.46.1.1,0,0,1-.142-.094c-.079-2.492-2.605-2.879-2.863-4.99a4.5,4.5,0,0,1,.8-2.725.1.1,0,0,1,.18.07" transform="translate(-2.686 0)" fill="#ff2427" fill-rule="evenodd"></path><path id="Trazado_2" data-name="Trazado 2" d="M24.44,35.923c-3.688.257-5.484.86-6.823,1.81a13.735,13.735,0,0,0-1.941,1.784.171.171,0,0,1-.247,0,13.647,13.647,0,0,0-1.941-1.784c-1.338-.95-3.135-1.552-6.822-1.81-1.333-.093-2.909-.141-4.8-.144a.171.171,0,0,0-.171.169v3.026a.171.171,0,0,0,.171.169c6.17.007,8.091.436,9.3,1.037,1.173.585,3.386,3.177,4.136,4.082a.332.332,0,0,0,.512,0c.75-.9,2.962-3.5,4.136-4.082,1.207-.6,3.128-1.03,9.3-1.037a.171.171,0,0,0,.171-.169V35.948a.171.171,0,0,0-.171-.169c-1.895,0-3.471.051-4.8.144" transform="translate(-0.31 -6.561)" fill="#ffb600"></path><path id="Trazado_3" data-name="Trazado 3" d="M9.282,29.907a.1.1,0,0,0,.083-.173C4.921,25.4,3.386,23.1,3.377,19.518a4.7,4.7,0,0,1,4.543-4.37,7.057,7.057,0,0,1,4.88,2.569l2.2,2.3a.338.338,0,0,0,.489,0l2.2-2.3a7.059,7.059,0,0,1,4.88-2.57,4.251,4.251,0,0,1,1.69.357l2.421-2.534c-2.971-1.868-7.259-1.869-11.314,2.29a.169.169,0,0,1-.243,0C7.973,7.928.095,13.524,0,19.488,0,23.4,1.463,26.217,4.417,29.5c.742.024,1.432.058,2.073.1,1.037.072,1.961.172,2.792.306" transform="translate(0 -2.158)" fill="#ff2427"></path><path id="Trazado_4" data-name="Trazado 4" d="M25.857,31.26a.1.1,0,0,0,.082.173c.831-.134,1.755-.234,2.793-.306q.959-.067,2.071-.1c2.954-3.28,4.417-6.1,4.417-10.009a6.8,6.8,0,0,0-.077-.92l-3.407,2.442c-.412,2.8-2.083,5.025-5.88,8.723" transform="translate(-4.735 -3.684)" fill="#ff2427"></path><path id="Trazado_5" data-name="Trazado 5" d="M22.907,24.646l11.307-8.1a1.012,1.012,0,0,0,.422-.823V12.726a.337.337,0,0,0-.581-.234l-11.368,11.9a.169.169,0,0,0,.22.254" transform="translate(-4.151 -2.271)" fill="#ffb600"></path><path id="Trazado_6" data-name="Trazado 6" d="M56.513,29.668l-1.806,4.945H49.487L58.515,11.3H64.52l9.107,23.316H68.211L66.4,29.668Zm8.439-4.043-3.454-9.5L58,25.625Z" transform="translate(-9.075 -2.071)" fill="#0a2240"></path><path id="Trazado_7" data-name="Trazado 7" d="M89.449,35.5a9.727,9.727,0,0,1-1.9.176,11.123,11.123,0,0,1-3.651-.569,7.684,7.684,0,0,1-2.826-1.688,7.825,7.825,0,0,1-1.846-2.748,9.949,9.949,0,0,1-.667-3.788,9.791,9.791,0,0,1,.687-3.748,7.846,7.846,0,0,1,1.944-2.826,8.4,8.4,0,0,1,3.081-1.766,13.057,13.057,0,0,1,4.141-.608,19.02,19.02,0,0,1,3.846.372,18.825,18.825,0,0,1,3.258.962v16.29a7.642,7.642,0,0,1-.824,3.729,6.877,6.877,0,0,1-2.1,2.375,8.341,8.341,0,0,1-2.827,1.256,13,13,0,0,1-3.042.373,13.726,13.726,0,0,1-6-1.3V37.6A14.928,14.928,0,0,0,83.7,38.911a10.458,10.458,0,0,0,3.022.412,4.427,4.427,0,0,0,2.886-.942,3.573,3.573,0,0,0,1.158-2.944v-.353a4.923,4.923,0,0,1-1.315.412m.235-13.346a8.027,8.027,0,0,0-1.276-.1,5.4,5.4,0,0,0-3.709,1.2,4.593,4.593,0,0,0-1.354,3.631,4.76,4.76,0,0,0,1.3,3.552,4.708,4.708,0,0,0,3.454,1.276,5.85,5.85,0,0,0,1.414-.157q.628-.157,1.257-.354V22.405a6.969,6.969,0,0,0-1.08-.255" transform="translate(-14.405 -3.288)" fill="#0a2240"></path><path id="Trazado_8" data-name="Trazado 8" d="M116.87,35.781q-.922.176-1.884.295t-1.9.176q-.943.059-1.766.059a16.046,16.046,0,0,1-3.415-.334,7.045,7.045,0,0,1-2.61-1.1,4.852,4.852,0,0,1-1.649-2.06,8.12,8.12,0,0,1-.569-3.258V18.412h4.75V29.167a3.378,3.378,0,0,0,.785,2.473,3.7,3.7,0,0,0,2.67.785q.51,0,1.177-.059t1.335-.176V18.412h4.749v17q-.746.2-1.668.373" transform="translate(-18.901 -3.376)" fill="#0a2240"></path><path id="Trazado_9" data-name="Trazado 9" d="M128.316,31.885a8.514,8.514,0,0,0,2.807.53,3.777,3.777,0,0,0,1.766-.354,1.228,1.228,0,0,0,.667-1.178,1.31,1.31,0,0,0-.608-1.178A6.657,6.657,0,0,0,130.887,29a8.387,8.387,0,0,1-4.3-1.806,4.811,4.811,0,0,1-1.315-3.65,5.73,5.73,0,0,1,.51-2.512,4.741,4.741,0,0,1,1.413-1.747,6.129,6.129,0,0,1,2.12-1.021,9.926,9.926,0,0,1,2.63-.334,11.21,11.21,0,0,1,2.787.314,9.175,9.175,0,0,1,2.355.982v4.2a12,12,0,0,0-2.434-1.256,7.35,7.35,0,0,0-2.552-.432,2.7,2.7,0,0,0-1.708.432,1.319,1.319,0,0,0-.529,1.059,1.267,1.267,0,0,0,.51,1.06,5.054,5.054,0,0,0,1.766.706,8.907,8.907,0,0,1,4.71,1.983,5.051,5.051,0,0,1,1.334,3.709,4.734,4.734,0,0,1-1.943,4.2,8.654,8.654,0,0,1-5,1.334,12.989,12.989,0,0,1-3.12-.372,8.733,8.733,0,0,1-2.572-1.04V30.452a10.9,10.9,0,0,0,2.768,1.432" transform="translate(-22.972 -3.287)" fill="#0a2240"></path><path id="Trazado_10" data-name="Trazado 10" d="M159.944,13.251a2.679,2.679,0,0,1-.824-1.962,2.817,2.817,0,0,1,4.808-2,2.693,2.693,0,0,1,.844,2,2.649,2.649,0,0,1-.844,1.962,2.818,2.818,0,0,1-3.984,0m-.354,3.337h4.71V34.094h-4.71Z" transform="translate(-29.178 -1.551)" fill="#0a2240"></path><path id="Trazado_11" data-name="Trazado 11" d="M173.633,18.342a23.476,23.476,0,0,1,4.239-.412,12.507,12.507,0,0,1,3.081.354,6.011,6.011,0,0,1,2.375,1.158,5.189,5.189,0,0,1,1.512,2.119,8.83,8.83,0,0,1,.53,3.278V35.83h-4.75V25.153q0-2.984-3.1-2.983a10.608,10.608,0,0,0-1.707.137,11.332,11.332,0,0,0-1.59.372V35.83h-4.71V19.461a24.247,24.247,0,0,1,4.121-1.119" transform="translate(-31.084 -3.287)" fill="#0a2240"></path><path id="Trazado_12" data-name="Trazado 12" d="M192.086,23.348a8.325,8.325,0,0,1,1.924-2.885,8.858,8.858,0,0,1,2.9-1.864,10.213,10.213,0,0,1,7.261,0,8.866,8.866,0,0,1,2.9,1.864,8.568,8.568,0,0,1,1.943,2.885,10.2,10.2,0,0,1,0,7.458,8.564,8.564,0,0,1-1.943,2.884,8.855,8.855,0,0,1-2.9,1.865,10.213,10.213,0,0,1-7.261,0,8.847,8.847,0,0,1-2.9-1.865,8.322,8.322,0,0,1-1.924-2.884,10.468,10.468,0,0,1,0-7.458m11.619.02a4.364,4.364,0,0,0-6.32,0,5.3,5.3,0,0,0-1.236,3.709,5.3,5.3,0,0,0,1.236,3.71,4.364,4.364,0,0,0,6.32,0,5.3,5.3,0,0,0,1.236-3.71,5.3,5.3,0,0,0-1.236-3.709" transform="translate(-35.098 -3.288)" fill="#0a2240"></path><path id="Trazado_13" data-name="Trazado 13" d="M218.57,31.885a8.514,8.514,0,0,0,2.807.53,3.777,3.777,0,0,0,1.766-.354,1.228,1.228,0,0,0,.667-1.178,1.31,1.31,0,0,0-.608-1.178A6.656,6.656,0,0,0,221.141,29a8.387,8.387,0,0,1-4.3-1.806,4.811,4.811,0,0,1-1.315-3.65,5.73,5.73,0,0,1,.51-2.512,4.741,4.741,0,0,1,1.413-1.747,6.129,6.129,0,0,1,2.12-1.021,9.925,9.925,0,0,1,2.63-.334,11.21,11.21,0,0,1,2.787.314,9.176,9.176,0,0,1,2.355.982v4.2a12,12,0,0,0-2.434-1.256,7.35,7.35,0,0,0-2.552-.432,2.7,2.7,0,0,0-1.708.432,1.319,1.319,0,0,0-.529,1.059,1.267,1.267,0,0,0,.51,1.06A5.053,5.053,0,0,0,222.4,25a8.907,8.907,0,0,1,4.71,1.983,5.051,5.051,0,0,1,1.334,3.709,4.734,4.734,0,0,1-1.943,4.2,8.654,8.654,0,0,1-5,1.334,12.989,12.989,0,0,1-3.12-.372,8.733,8.733,0,0,1-2.572-1.04V30.452a10.9,10.9,0,0,0,2.768,1.432" transform="translate(-39.522 -3.287)" fill="#0a2240"></path><path id="Trazado_14" data-name="Trazado 14" d="M143.918,17.107V12.79l4.71-1.492v5.809h4.985v3.926h-4.985v7.025a2.66,2.66,0,0,0,.648,2.061,2.5,2.5,0,0,0,1.708.569,5.246,5.246,0,0,0,1.668-.256,7.859,7.859,0,0,0,1.551-.726v4.318a9.514,9.514,0,0,1-4.514.982,7.937,7.937,0,0,1-2.178-.295,4.984,4.984,0,0,1-1.845-.961A4.621,4.621,0,0,1,144.39,32a6.728,6.728,0,0,1-.471-2.689V21.033h-2.63V17.107Z" transform="translate(-25.908 -2.071)" fill="#0a2240"></path></g></g></svg>